<?xml version="1.0" encoding="UTF-8"?>
<svg version="1.1" xmlns="http://www.w3.org/2000/svg" width="150" height="100">
<path d="M0 0 C3.25 1.6875 3.25 1.6875 5 4 C5.5625 6.5 5.5625 6.5 5 9 C2.7522146 11.79035429 1.42269984 12.85910005 -2 14 C-6.77825326 14.3916601 -9.10191565 14.44087777 -13.4375 12.3125 C-16 10 -16 10 -17.1875 7.5625 C-17 5 -17 5 -15.3125 2.1875 C-10.36434592 -1.08014892 -5.76629887 -0.86016613 0 0 Z M-12 3 C-11.61704951 5.22111286 -11.13079812 6.80380283 -9.875 8.6875 C-7.09563127 10.63305811 -4.32110837 10.68668789 -1 11 C-0.67 10.01 -0.34 9.02 0 8 C-0.94875 8.020625 -1.8975 8.04125 -2.875 8.0625 C-6 8 -6 8 -8 7 C-8.625 4.4375 -8.625 4.4375 -9 2 C-10.2236068 1.9254644 -10.2236068 1.9254644 -12 3 Z " fill="#7D22CE" transform="translate(69,41)"/>
<path d="M0 0 C2.31 0 4.62 0 7 0 C7 4.29 7 8.58 7 13 C4.69 13 2.38 13 0 13 C0 8.71 0 4.42 0 0 Z " fill="#D845EE" transform="translate(95,40)"/>
<path d="M0 0 C0.86625 0.3403125 0.86625 0.3403125 1.75 0.6875 C1.42 1.3475 1.09 2.0075 0.75 2.6875 C0.4447378 7.34025976 0.4447378 7.34025976 1.75 11.6875 C4.27733235 12.34305119 4.27733235 12.34305119 6.75 12.6875 C6.75 13.0175 6.75 13.3475 6.75 13.6875 C5.14482903 13.60016424 3.54078338 13.49197776 1.9375 13.375 C0.59751953 13.28798828 0.59751953 13.28798828 -0.76953125 13.19921875 C-3.61069844 12.6130882 -4.57122873 12.02578855 -6.25 9.6875 C-6.6875 6.1875 -6.6875 6.1875 -6.25 2.6875 C-4.13578911 0.27125898 -3.2149628 -0.44652261 0 0 Z " fill="#D846EF" transform="translate(37.25,40.3125)"/>
<path d="M0 0 C1.98 0 3.96 0 6 0 C6 4.29 6 8.58 6 13 C4.02 13 2.04 13 0 13 C0 8.71 0 4.42 0 0 Z " fill="#D946EF" transform="translate(78,40)"/>
<path d="M0 0 C-0.33 0.33 -0.66 0.66 -1 1 C-1.07205511 2.68608966 -1.08386068 4.37500659 -1.0625 6.0625 C-1.04896484 7.44115234 -1.04896484 7.44115234 -1.03515625 8.84765625 C-1.02355469 9.55792969 -1.01195313 10.26820312 -1 11 C0.65 11.33 2.3 11.66 4 12 C4 12.33 4 12.66 4 13 C2.56163249 12.88541307 1.12429034 12.75790884 -0.3125 12.625 C-1.51326172 12.52058594 -1.51326172 12.52058594 -2.73828125 12.4140625 C-5 12 -5 12 -8 10 C-8.33422639 6.99196247 -8.53829638 4.89851898 -8 2 C-5.41249751 -1.0495565 -3.68979057 -1.44956058 0 0 Z " fill="#D845EE" transform="translate(113,41)"/>
<path d="M0 0 C5.75 0.75 5.75 0.75 8 3 C8.55776892 9.13545817 8.55776892 9.13545817 6.75 11.9375 C5 13 5 13 1 13 C1.01740234 11.84371094 1.01740234 11.84371094 1.03515625 10.6640625 C1.04417969 9.66117188 1.05320312 8.65828125 1.0625 7.625 C1.07410156 6.62726562 1.08570312 5.62953125 1.09765625 4.6015625 C1.18006602 2.01567547 1.18006602 2.01567547 0 0 Z " fill="#D945EF" transform="translate(116,40)"/>
<path d="M0 0 C-0.33 1.32 -0.66 2.64 -1 4 C-2.65 4 -4.3 4 -6 4 C-2.25 0 -2.25 0 0 0 Z " fill="#DA47EF" transform="translate(93,49)"/>
<path d="M0 0 C1.65 0 3.3 0 5 0 C4.67 1.32 4.34 2.64 4 4 C2.68 2.68 1.36 1.36 0 0 Z " fill="#D846EE" transform="translate(43,40)"/>
<path d="M0 0 C0.33 1.32 0.66 2.64 1 4 C-0.32 3.67 -1.64 3.34 -3 3 C-2.01 2.01 -1.02 1.02 0 0 Z " fill="#D945EF" transform="translate(47,49)"/>
</svg>
